<svg viewBox="-50 -50 420 420" width="420" height="420" xmlns="http://www.w3.org/2000/svg">
<circle cx="160" cy="160" r="210" stroke="black" stroke-width="0" fill="#76c84d"></circle>
<path d="m313.3 125c-6.8-17.4-19.3-27.5-23.4-30.8-5.8-4.6-11.7-8.1-11.7-8.1-9-5.3-14.9-6.8-21.2-13.9-1.2-1.3-2-2.4-2.9-3.7-4.1-5.5-8.5-11.4-8.8-19-.1-1.4 0-3.7.7-6.6-3.1 1.1-9.4 3.9-12.5 10.3-2.8 5.9-1.5 12.1 0 19 .9 4.1 2 7.4 2.9 9.5-3.4 1.5-8.6 4.3-13.2 9.5-6.8 7.7-8.6 16.5-9.5 21.2-2 10 .4 12.7-2.2 20.5-2.2 6.5-6 11.1-8.8 13.9-3.4-.7-8.1-1.5-13.9-1.5-17.7 0-30.7 7.3-35.9 10.3-16.5 9.5-25.6 22.7-33.7 34.4-3.2 4.7-5.7 8.8-7.3 11.7-1-1.4-2.4-3.6-2.9-6.6-.3-1.6-1.1-7.7 9.5-21.2 2.5-3.2 7.4-9.4 15.4-16.1 6.5-5.4 9.7-6.7 13.9-12.5 3.6-4.8 5.2-9.2 5.9-11 1.6-4.5 1.9-8.1 2.2-12.5 1.1-15.2-2.6-25.9-3.6-28.7-.1-.2-.4-1.1-.8-2.1-2-4.9-7.5-18.3-21.2-28.6-12.4-9.2-25.4-11.3-32.2-11.7-12.6-.9-22.1 2.5-31.5 5.9-4.6 1.6-13.4 4.8-23.4 11.7-5.1 3.5-21.4 15.4-31.5 36.6-1.5 3-3.6 7.5-5.1 13.9-3 12.2-1.8 22.4-.7 27.8 1.3 6.7 3 15.8 10.3 24.2 2.2 2.6 11.4 13.1 21.2 11 2.6-.6 4.4-1.8 5.9-2.9 4.4-3.2 6.9-9.5 11.7-22 0 0 5.6-14.4 9.5-21.2 1.5-2.5 2.8-4.5 3.7-5.9 2.4 1.5 5.2 3.9 5.9 7.3.7 3.8-1.5 7.1-2.2 8.1-6.7 10.3-18.4 41.5-19.8 56.4 0 .2-.1 1.1-.2 2.2-.4 5.2-1 16 2.4 27.8 3.5 12.1 9.7 20 12.5 23.4 11.5 14.3 25.6 20.8 33 23.4 1 1.5 2.4 3.6 4.4 5.9s3.2 3.8 5.1 5.1c2.6 1.8 5.1 2.4 8.1 2.9 4.1.8 9.8 1.7 16.8 2.2 26-.9 47.4-1.7 63-2.2 26.8-.9 32-1.1 35.2-.7 1.9.3 4.2.2 8.8 0 2.6-.1 3.2-.2 3.7-.7 1.7-2-2.1-8.1-5.1-11.7-1.7-2-7.9-9.3-18.3-10.3-3.8-.4-6.9.2-8.8.7.2-1.1.4-2.9.7-5.1.9-6.4 1.3-8.1 1.5-11 .1-1.5.2-3.8 0-6.6 3.8-2.7 6.7-5.3 8.8-7.3 2.7-2.6 5.1-5 7.3-8.8 1-1.7 1.7-3.3 2.2-4.4 3.3 0 8.7-.4 14.7-2.9 2.7-1.1 6.6-2.8 10.3-6.6 1.4-1.4 7.3-7.6 6.6-15.4-.1-1.4-.6-6.4-3.7-7.3-2.7-.8-5.5 1.9-5.9 2.2.9-3.8 1.6-6.8 2.2-8.8 1.4-4.9 2.9-10.1 3.7-13.9 1.1-5.3.8-6.2 1.1-6.9 0 0 .1-.2.3-.5 1.8-2.1 12.5 0 12.5 0s6.3 1.2 12.5 1.5c4.7.2 11.2.4 17.6-2.9 1.1-.6 8.2-4.4 11.7-12.5 3.6-9.2-.1-18.6-3.5-27.4zm-21.3 8.8c-.3.5-.9 1.5-2.2 2.2-2.1 1.1-4.4.4-5.9 0-3.4-1-5.4-3.1-8.1-5.9-1.2-1.2-1.7-2-2.2-2.9-.5-1-1.4-3-.7-5.1.6-1.9 2.3-2.9 3.7-3.7.8-.5 2.8-1.6 5.1-1.5 4.2.2 6.9 4.1 8.1 5.9.5.8 4.6 6.8 2.2 11z" fill="#fff"/>
</svg>
